<svg width="355" height="144" viewBox="0 0 355 144" fill="none" xmlns="http://www.w3.org/2000/svg">
<path d="M192.45 110.659L181.8 75.255C181.556 74.4522 180.591 74.1585 179.957 74.7067L149.812 100.829C148.876 101.632 147.656 102.014 146.437 101.896L107.174 97.6763C106.355 97.5882 105.711 98.3813 105.955 99.1841L117.063 136.106C117.326 136.997 118.087 137.643 118.994 137.741L159.077 143.899C160.325 144.046 161.583 143.645 162.529 142.803L189.787 116.925L191.357 115.261C192.518 114.027 192.928 112.275 192.45 110.659ZM121.578 132.963H121.568L112.733 103.708L143.746 107.027C143.989 107.056 144.194 107.232 144.263 107.457L153.313 137.839L121.578 132.963Z" fill="url(#paint0_linear_3608_9875)"/>
<path d="M149.997 89.2757C148.758 90.0883 147.188 90.8422 145.413 91.4003C143.638 91.9584 141.932 92.2521 140.459 92.2815C138.928 92.3304 137.67 92.0857 136.87 91.6059C136.714 91.5178 136.529 91.6549 136.587 91.8311L137.923 96.2762C138.089 96.8343 138.489 97.2847 139.006 97.5001C140.713 98.2148 143.804 98.1071 147.12 97.0693C150.426 96.0314 153.04 94.3278 154.064 92.7515C154.376 92.2619 154.454 91.6647 154.288 91.1066L152.952 86.6615C152.903 86.495 152.659 86.4657 152.591 86.6419C152.191 87.5035 151.284 88.4239 150.007 89.2659L149.997 89.2757Z" fill="url(#paint1_linear_3608_9875)"/>
<path d="M147.822 69.6252C147.773 69.4588 147.53 69.4294 147.461 69.6057C147.062 70.4673 146.155 71.3876 144.877 72.2296C143.638 73.0423 142.068 73.7962 140.293 74.3543C138.518 74.9124 136.812 75.2061 135.339 75.2355C133.808 75.2844 132.56 75.0396 131.75 74.5599C131.594 74.4718 131.418 74.6088 131.467 74.7851L132.803 79.2302C132.969 79.7882 133.359 80.2386 133.886 80.454C135.593 81.1688 138.684 81.0611 142 80.0232C145.306 78.9854 147.92 77.2818 148.944 75.7054C149.256 75.2159 149.334 74.6186 149.168 74.0605L147.832 69.6155L147.822 69.6252Z" fill="url(#paint2_linear_3608_9875)"/>
<path d="M154.971 82.5787C156.677 83.2934 159.779 83.1857 163.085 82.1479C166.391 81.11 169.005 79.4064 170.029 77.8301C170.341 77.3405 170.419 76.7335 170.253 76.1852L168.917 71.7401C168.868 71.5736 168.624 71.5443 168.556 71.7205C168.156 72.5821 167.249 73.5025 165.972 74.3445C164.733 75.1571 163.163 75.911 161.388 76.4691C159.613 77.0272 157.906 77.3209 156.434 77.3503C154.903 77.3993 153.644 77.1545 152.845 76.6747C152.689 76.5866 152.503 76.7237 152.562 76.8999L153.898 81.345C154.064 81.9031 154.464 82.3535 154.981 82.5787H154.971Z" fill="url(#paint3_linear_3608_9875)"/>
<path d="M131.126 83.6655C131.077 83.4892 130.833 83.4696 130.765 83.6361C130.365 84.4977 129.458 85.418 128.181 86.2601C126.942 87.0727 125.372 87.8266 123.597 88.3847C121.822 88.9428 120.115 89.2365 118.643 89.2659C117.112 89.3148 115.853 89.0701 115.054 88.5903C114.898 88.5022 114.712 88.6393 114.771 88.8155L116.107 93.2606C116.273 93.8187 116.663 94.2691 117.19 94.4943C118.896 95.209 121.988 95.1013 125.304 94.0634C128.61 93.0256 131.223 91.322 132.247 89.7456C132.56 89.2561 132.638 88.6491 132.472 88.1008L131.136 83.6557L131.126 83.6655Z" fill="url(#paint4_linear_3608_9875)"/>
<path d="M354.039 56.1235L347.651 43.5226C347.242 42.7099 347.105 41.9462 347.261 41.2413C347.408 40.5363 347.876 39.7433 348.636 38.8425C350.002 37.3543 351.065 35.308 351.855 32.7231C352.635 30.1383 352.879 26.829 352.586 22.8245C352.274 18.4577 351.357 14.8351 349.865 11.9663C348.363 9.10738 346.442 6.86526 344.101 5.27912C341.751 3.6832 339.069 2.61598 336.065 2.09706C333.052 1.57814 329.892 1.43128 326.557 1.69564L303.511 3.45801C301.932 3.58529 300.693 4.16295 299.806 5.23017C299.767 5.27912 299.718 5.34766 299.679 5.39661C299.523 5.13226 299.337 4.8679 299.133 4.63292C298.235 3.58529 296.997 2.99783 295.417 2.89013L263.828 0.755704C262.249 0.648004 260.952 1.05922 259.918 1.97957C258.894 2.89013 258.318 4.15316 258.221 5.77846L256.407 33.8785C256.261 32.3021 256.036 30.6671 255.734 28.9634C254.807 23.5197 253.432 18.9571 251.638 15.2561C249.843 11.5551 247.6 8.64721 244.918 6.50299C242.227 4.36856 239.086 3.01741 235.478 2.44954C231.869 1.88166 227.773 2.00895 223.229 2.83139L200.027 7.01212C198.672 7.26669 197.609 7.83456 196.838 8.73533C196.721 7.76602 196.361 6.924 195.766 6.20926C194.898 5.13226 193.659 4.52522 192.089 4.36856L182.21 3.44822C180.639 3.30135 179.333 3.67341 178.279 4.56438C177.226 5.46515 176.621 6.71839 176.485 8.32411L175.246 22.3154C175.198 22.9028 175.003 23.3826 174.681 23.7546C174.349 24.1169 173.969 24.3421 173.52 24.4204C173.072 24.4988 172.623 24.4204 172.174 24.1952C171.726 23.97 171.375 23.6078 171.121 23.0987L162.519 4.67208C161.934 3.35031 161.32 2.45933 160.686 2.00895C160.052 1.55856 159.028 1.26483 157.633 1.14734L145.862 0.031174C144.292 -0.11569 142.985 0.256366 141.922 1.14734C140.869 2.03832 140.274 3.30135 140.127 4.90707L138.323 25.1743C137.65 21.9923 136.763 19.1529 135.68 16.6464C134.003 12.7888 131.828 9.69484 129.166 7.3548C126.503 5.01477 123.314 3.42863 119.598 2.60619C115.883 1.77396 111.709 1.67605 106.881 2.32226C102.063 2.96846 97.9771 4.18254 94.632 5.97428C91.2868 7.75623 88.6147 10.1354 86.6349 13.0923C85.7864 14.3553 85.0745 15.7261 84.4698 17.2045L86.0888 8.35348C86.3716 6.73797 86.1278 5.44557 85.3378 4.48606C84.5479 3.51675 83.3581 3.037 81.7782 3.037H70.8748C69.2949 3.037 67.9296 3.52654 66.7885 4.48606C65.6475 5.43578 64.9258 6.73797 64.643 8.35348L59.4546 35.8269C59.3961 36.1304 59.2888 36.336 59.1425 36.4535C58.9963 36.5906 58.811 36.6395 58.6062 36.6395C58.4014 36.6395 58.2063 36.5808 58.0405 36.4535C57.865 36.3262 57.7772 36.1304 57.7772 35.8269L54.0907 8.35348C53.8567 6.73797 53.213 5.44557 52.1597 4.48606C51.0967 3.51675 49.7509 3.037 48.1027 3.037H38.0869C36.4484 3.037 35.0928 3.52654 34.0493 4.48606C32.996 5.43578 32.3524 6.73797 32.1183 8.35348L28.4319 35.8269C28.3733 36.1304 28.2661 36.336 28.1198 36.4535C27.9735 36.5906 27.7882 36.6395 27.5834 36.6395C27.3786 36.6395 27.1835 36.5808 27.0177 36.4535C26.8422 36.3262 26.7252 36.1304 26.6667 35.8269L21.4881 8.35348C21.1955 6.73797 20.4836 5.44557 19.3718 4.48606C18.26 3.51675 16.8849 3.037 15.2464 3.037H4.4309C2.79248 3.037 1.59292 3.52654 0.822472 4.48606C0.0715276 5.44557 -0.172285 6.74776 0.12029 8.36327L9.60949 60.7644C9.90207 62.3799 10.6043 63.6723 11.716 64.6319C12.8278 65.6012 14.2029 66.0711 15.8414 66.0711H32.9863C34.6247 66.0711 35.9803 65.5914 37.0433 64.6319C38.0966 63.6723 38.7013 62.3506 38.8768 60.6763L41.7733 33.8393C41.9001 32.9973 42.3194 32.5763 43.0509 32.5763C43.7823 32.5763 44.1822 32.9973 44.2407 33.8393L47.1372 60.6763C47.3225 62.3506 47.9174 63.6821 48.9414 64.6319C49.9654 65.6012 51.2918 66.0809 52.9399 66.0809H70.2604C71.8988 66.0809 73.2739 65.5914 74.3857 64.6319C75.5073 63.6821 76.2095 62.3799 76.502 60.7644L82.3145 28.9732C82.256 31.8224 82.4316 34.9065 82.8704 38.2453C83.5726 43.7184 84.7527 48.3985 86.4008 52.2561C88.049 56.1137 90.2043 59.2272 92.8668 61.5575C95.5194 63.8877 98.6988 65.4837 102.375 66.3159C106.052 67.1481 110.373 67.2265 115.132 66.59C119.901 65.9438 123.968 64.7396 127.342 62.9478C130.716 61.1561 133.398 58.7867 135.378 55.82C135.466 55.6927 135.544 55.5752 135.622 55.4479L135.495 56.9068C135.349 58.5223 135.719 59.8637 136.587 60.9407C137.465 62.0177 138.694 62.6247 140.264 62.7814L150.153 63.7017C151.733 63.8486 153.04 63.4765 154.093 62.5758C155.146 61.6848 155.741 60.4217 155.888 58.816L157.126 44.8248C157.175 44.2373 157.37 43.7576 157.692 43.3855C158.014 43.033 158.404 42.798 158.852 42.7197C159.291 42.6414 159.74 42.7197 160.198 42.9449C160.647 43.1701 160.988 43.5324 161.251 44.0317L169.034 60.7742C169.97 62.7912 170.936 64.1521 171.93 64.8473C172.925 65.5424 174.476 65.9928 176.573 66.1886L186.462 67.109C188.042 67.2558 189.348 66.8838 190.402 65.9928C191.455 65.092 192.05 63.8388 192.196 62.2331L196.273 16.431L204.562 64.671C204.835 66.2669 205.528 67.4712 206.649 68.2741C207.771 69.077 209.097 69.3413 210.658 69.0574L233.167 65.0039C237.897 64.1521 241.905 62.8205 245.201 61.0092C248.488 59.1979 251.062 56.8089 252.935 53.852C254.008 52.1582 254.837 50.2881 255.451 48.2124L254.827 57.8761C254.72 59.4916 255.119 60.8232 256.026 61.8904C256.933 62.9478 258.162 63.5255 259.752 63.6332L291.331 65.7676C292.911 65.8753 294.208 65.4641 295.241 64.5437C296.265 63.6234 296.841 62.3506 296.938 60.7253L297.348 54.4493C297.455 52.8338 297.055 51.4924 296.148 50.435C295.241 49.3873 294.013 48.7999 292.433 48.6922L279.267 47.811C278.34 47.7523 277.58 47.4096 276.994 46.7927C276.419 46.1857 276.156 45.3731 276.224 44.345L276.253 44.0807C276.312 43.0624 276.673 42.2987 277.326 41.77C277.979 41.2413 278.769 41.0063 279.706 41.0748L287.859 41.6231C289.439 41.7308 290.736 41.3196 291.769 40.3993C292.793 39.4789 293.369 38.2061 293.466 36.5808L293.749 32.0867C293.856 30.4712 293.457 29.1397 292.55 28.0822C291.652 27.0346 290.414 26.4472 288.834 26.3395L280.681 25.7912C279.745 25.7324 278.994 25.3897 278.409 24.7729C277.833 24.1659 277.57 23.3532 277.638 22.3252L277.667 22.0608C277.726 21.0425 278.087 20.2789 278.74 19.7501C279.393 19.2214 280.193 18.9865 281.12 19.0648L294.286 19.946C295.866 20.0537 297.163 19.6424 298.196 18.7221C298.606 18.3402 298.947 17.9192 299.211 17.4297L302.448 61.9491C302.566 63.5646 303.141 64.8277 304.184 65.748C305.208 66.6684 306.525 67.06 308.095 66.9425V66.9621L318.004 66.1984C319.574 66.0711 320.812 65.4935 321.71 64.4263C322.607 63.359 322.987 62.0275 322.87 60.412L322.012 48.6432C321.954 47.8012 322.119 47.1354 322.529 46.6165C322.938 46.1074 323.543 45.8234 324.362 45.7549L324.879 45.706C325.523 45.657 326.079 45.7549 326.537 46.029C327.005 46.2836 327.395 46.7046 327.737 47.2921L334.222 60.1574C334.837 61.3715 335.724 62.3114 336.894 62.9772C338.055 63.643 339.313 63.9269 340.659 63.8192L350.294 63.0849C352.459 62.9184 353.873 62.2233 354.556 60.9603C355.229 59.707 355.044 58.0915 354.02 56.1235H353.991H354.039ZM118.067 45.9507C117.687 47.155 117.073 48.0264 116.234 48.5551C115.376 49.1034 114.322 49.4559 113.045 49.6223C111.65 49.8084 110.499 49.7496 109.573 49.4559C108.637 49.1524 107.847 48.4768 107.174 47.4194C106.511 46.3522 105.945 44.8541 105.496 42.9253C105.048 40.9867 104.619 38.4704 104.219 35.3765C103.819 32.2728 103.604 29.7369 103.556 27.7494C103.507 25.7618 103.673 24.1659 104.053 22.9616C104.424 21.7573 105.028 20.8957 105.847 20.3572C106.667 19.8285 107.749 19.4662 109.085 19.29C110.412 19.1137 111.572 19.1823 112.528 19.5152C113.484 19.8383 114.293 20.5432 114.966 21.5908C115.639 22.6483 116.195 24.1365 116.643 26.0359C117.092 27.9452 117.502 30.3831 117.892 33.3596C118.301 36.522 118.526 39.1068 118.584 41.1238C118.633 43.1505 118.477 44.7562 118.106 45.9605H118.087L118.067 45.9507ZM234.776 42.798C234.425 44.3744 233.771 45.7647 232.845 46.9396C231.918 48.1145 230.572 48.9174 228.797 49.358C228.271 49.4461 227.783 49.5048 227.354 49.5244C226.915 49.544 226.496 49.5244 226.096 49.4755C225.696 49.4265 225.345 49.3286 225.013 49.1622C224.682 48.9957 224.36 48.8293 224.028 48.653C223.482 48.2614 223.043 47.7816 222.712 47.1942C222.371 46.6165 222.136 45.9214 221.99 45.0793L218.645 25.5758C218.499 24.7533 218.499 23.97 218.645 23.2455C218.791 22.521 219.084 21.865 219.513 21.3069C219.708 21.0328 219.942 20.7782 220.225 20.5432C220.508 20.318 220.839 20.1124 221.2 19.9558C221.551 19.8089 221.932 19.6522 222.331 19.525C222.731 19.3879 223.151 19.29 223.619 19.2019C225.423 18.9962 226.964 19.2802 228.232 20.0635C229.49 20.8369 230.572 21.9139 231.47 23.2749C232.357 24.6456 233.05 26.1632 233.547 27.8375C234.035 29.5117 234.405 31.0587 234.688 32.6644C234.961 34.2603 235.137 35.9542 235.205 37.7459C235.273 39.5377 235.137 41.2217 234.785 42.8078L234.776 42.798ZM330.672 31.1664C329.365 32.2336 327.493 32.8504 325.045 33.0365L323.553 33.154C322.734 33.2127 322.071 33.0169 321.573 32.5469C321.066 32.077 320.783 31.4503 320.725 30.6671L320.091 22.051C320.032 21.209 320.218 20.5334 320.647 20.0243C321.086 19.5152 321.7 19.2214 322.529 19.1627L324.021 19.0452C326.479 18.8592 328.429 19.1921 329.863 20.0439C331.306 20.9055 332.125 22.707 332.32 25.4583C332.515 28.2095 331.969 30.109 330.662 31.186L330.672 31.1664Z" fill="url(#paint5_linear_3608_9875)"/>
<path d="M105.828 121.772L97.1189 121.126C94.9733 120.979 93.5592 120.489 92.896 119.706C92.2329 118.923 91.9695 117.425 92.1256 115.212L94.632 79.3672C94.749 77.7126 94.3589 76.3418 93.4324 75.255C92.5157 74.178 91.2479 73.571 89.6387 73.4535L79.4863 72.7094C77.8771 72.5821 76.5508 73.0031 75.478 73.9333C74.4247 74.8732 73.8396 76.1754 73.7226 77.8301L71.2064 113.753C70.5725 111.883 69.646 110.307 68.4074 109.034C66.4764 107.066 63.7555 105.803 60.2348 105.215C59.4351 105.068 58.9767 104.589 58.8792 103.776C58.7719 102.954 59.0645 102.376 59.7375 102.023C61.2003 101.26 62.4096 100.428 63.3459 99.4778C64.2724 98.5379 65.0038 97.5001 65.5207 96.3545C66.0376 95.1992 66.3594 93.946 66.4862 92.5948C66.613 91.2437 66.5642 89.7554 66.3497 88.1008C65.9986 85.4278 65.2769 83.0584 64.1944 81.0121C63.1118 78.9658 61.6002 77.2916 59.6789 75.9992C57.7479 74.7165 55.3488 73.8549 52.4816 73.4143C49.6143 72.964 46.2107 73.0129 42.2902 73.5612L17.8504 76.9195C16.0657 77.1643 14.7881 77.8007 14.0176 78.8483C13.2472 79.8862 12.9741 81.3254 13.2179 83.1465L20.1617 136.125C20.4055 137.956 21.0199 139.249 22.044 140.052C23.0485 140.835 24.4528 141.119 26.2375 140.874L52.4523 137.271C56.1973 136.762 59.3766 135.881 62 134.667C64.6332 133.443 66.73 131.945 68.3099 130.172C69.0706 129.321 69.7143 128.42 70.2409 127.47L69.9776 131.152C69.8606 132.806 70.2604 134.177 71.1772 135.264C72.0939 136.351 73.3715 136.948 74.9806 137.065L104.589 139.239C106.198 139.366 107.544 138.955 108.598 138.015C109.661 137.075 110.246 135.783 110.353 134.118L110.802 127.686C110.919 126.031 110.519 124.66 109.602 123.583C108.685 122.506 107.418 121.909 105.808 121.791H105.838L105.828 121.772ZM36.2826 97.6567L35.795 94.0047C35.678 93.0844 35.8145 92.3696 36.2046 91.8605C36.5947 91.3416 37.2286 91.0185 38.1161 90.901L40.0861 90.6366C42.5828 90.2841 44.4357 90.4114 45.6646 90.9793C46.8836 91.557 47.5956 92.634 47.8101 94.2201C48.0247 95.7964 47.6053 97.0399 46.5715 97.9211C45.5475 98.8023 43.7726 99.4191 41.2759 99.7618L39.3059 100.026C38.4087 100.153 37.7163 100.007 37.2091 99.6149C36.702 99.2233 36.3899 98.5673 36.2631 97.6567H36.2826ZM51.2333 119.588C50.1995 120.47 48.4343 121.086 45.9376 121.439L42.1829 121.948C41.2857 122.075 40.5933 121.948 40.0861 121.537C39.579 121.135 39.2669 120.489 39.1401 119.579L38.6525 115.917C38.5355 114.996 38.672 114.282 39.0621 113.773C39.4522 113.254 40.0861 112.931 40.9736 112.823L44.7186 112.314C47.2152 111.971 49.0682 112.079 50.297 112.617C51.5258 113.166 52.2378 114.252 52.4523 115.897C52.6669 117.532 52.2475 118.707 51.2235 119.598L51.2333 119.588Z" fill="url(#paint6_linear_3608_9875)"/>
<path d="M345.018 78.9266C342.044 77.4678 339.167 76.2635 336.358 75.304C333.579 74.3543 330.35 73.6689 326.722 73.2479C323.27 72.8367 319.896 72.7877 316.599 73.0814C313.303 73.385 310.309 74.1682 307.637 75.4704C304.955 76.7628 302.721 78.6329 300.947 81.0806C299.162 83.5284 298.04 86.7398 297.611 90.7051C297.221 94.1222 297.494 97.177 298.391 99.8793C299.298 102.582 300.83 104.931 302.985 106.909C305.14 108.897 307.91 110.551 311.265 111.873C314.62 113.195 318.511 114.203 322.968 114.918C323.806 115.016 324.46 115.231 324.938 115.564C325.406 115.897 325.776 116.269 326.03 116.671C326.293 117.072 326.449 117.474 326.527 117.895C326.605 118.306 326.596 118.639 326.498 118.864C326.44 119.412 326.069 120.039 325.386 120.724C324.704 121.419 323.416 121.664 321.505 121.429C318.521 121.077 315.244 120.323 311.665 119.158C308.085 117.993 304.701 116.7 301.551 115.28C300.049 114.683 298.781 114.664 297.748 115.251C296.714 115.848 296.07 116.925 295.846 118.511L294.949 124.885C294.861 125.483 294.832 126.08 294.861 126.638L285.011 109.729C284.055 108.143 283.509 106.518 283.402 104.863C283.294 103.208 283.587 101.524 284.299 99.8009L293.535 76.7335C294.139 75.1571 294.139 73.943 293.535 73.0814C292.93 72.2296 291.828 71.8674 290.209 71.9947L275.756 73.101C274.742 73.1794 273.835 73.522 273.035 74.1487C272.235 74.7655 271.66 75.5683 271.309 76.5866L265.155 93.5935C264.813 94.6705 264.219 95.1503 263.37 95.023C262.522 94.8957 262.054 94.2886 261.985 93.1921L261.01 79.7785C260.883 77.9378 260.327 76.5964 259.362 75.7446C258.406 74.883 257.021 74.5305 255.227 74.6774L245.094 75.4411C243.299 75.5781 241.993 76.1362 241.154 77.1251C240.315 78.114 239.984 79.5239 240.11 81.3646L243.992 134.657C244.119 136.497 244.674 137.839 245.64 138.691C246.596 139.552 247.981 139.895 249.775 139.758L259.908 138.984C261.702 138.847 263.009 138.299 263.848 137.3C264.687 136.321 265.018 134.911 264.891 133.071L263.926 119.745C263.838 118.58 264.199 117.885 265.028 117.63C265.847 117.385 266.51 117.758 266.998 118.766L275.551 134.657C276.039 135.606 276.731 136.331 277.599 136.811C278.467 137.3 279.423 137.496 280.437 137.418L294.89 136.311C296.499 136.184 297.543 135.665 298.021 134.735C298.362 134.069 298.362 133.257 298.021 132.317C298.304 132.512 298.616 132.689 298.938 132.845C301.571 134.157 304.145 135.254 306.662 136.165C309.187 137.085 312.113 137.79 315.429 138.309C318.813 138.828 322.295 139.014 325.874 138.886C329.453 138.759 332.74 138.064 335.744 136.85C338.757 135.626 341.312 133.746 343.448 131.22C345.564 128.684 346.871 125.287 347.359 121.018C347.729 117.66 347.466 114.654 346.559 111.981C345.652 109.308 344.111 106.978 341.956 104.99C339.791 103.003 337.031 101.348 333.676 100.026C330.321 98.7044 326.42 97.7155 321.963 97.0693C321.134 96.9126 320.481 96.6678 320.003 96.3252C319.525 95.9923 319.155 95.6202 318.901 95.2188C318.647 94.8174 318.491 94.4159 318.452 94.0047C318.413 93.5935 318.404 93.2704 318.423 93.0256C318.462 92.7221 318.569 92.4186 318.755 92.0857C318.94 91.7724 319.223 91.4591 319.593 91.1555C319.964 90.8618 320.452 90.6464 321.076 90.4897C321.69 90.3527 322.48 90.3331 323.426 90.4408C326.342 90.7835 329.473 91.5276 332.818 92.6535C336.153 93.7795 339.352 95.0328 342.405 96.3741C343.897 97.0497 345.155 97.0888 346.189 96.5014C347.213 95.9139 347.856 94.8271 348.09 93.2508L348.987 86.8671C349.241 85.1733 349.007 83.5871 348.295 82.1479C347.583 80.7086 346.481 79.612 344.989 78.8777V78.8973L345.018 78.9266Z" fill="url(#paint7_linear_3608_9875)"/>
<path d="M211.272 105.93C211.194 109.376 211.34 112.118 211.711 114.194C212.082 116.269 212.706 117.855 213.583 118.981C214.451 120.107 215.602 120.871 217.036 121.233C218.469 121.605 220.225 121.821 222.331 121.87L224.087 121.919C224.838 121.948 225.677 121.938 226.613 121.889C227.549 121.85 228.515 121.821 229.539 121.821C230.563 121.811 231.587 121.772 232.611 121.674C234.59 121.596 235.975 121.928 236.775 122.653C237.565 123.368 237.945 124.719 237.896 126.677L237.75 133.129C237.701 135.225 237.243 136.732 236.385 137.702C235.517 138.661 234.122 139.18 232.201 139.258C231.07 139.288 229.899 139.317 228.739 139.356C227.578 139.376 226.467 139.396 225.452 139.405C224.438 139.415 223.58 139.405 222.887 139.386L221.493 139.356C215.144 139.19 209.868 138.485 205.664 137.212C201.461 135.949 198.126 133.962 195.639 131.259C193.152 128.557 191.426 125.091 190.48 120.861C190.48 120.851 190.48 120.832 190.48 120.822C190.002 118.649 189.787 116.436 189.739 114.213L189.514 102.768C189.485 101.221 189.544 99.6541 189.709 98.1169C190.041 95.1013 190.538 92.3892 191.192 89.9904C192.333 85.8097 194.205 82.4318 196.819 79.847C199.433 77.272 202.856 75.4509 207.118 74.3836C211.36 73.3164 216.675 72.866 223.034 73.0129L224.428 73.0521C225.121 73.0717 225.969 73.1108 226.983 73.1598C228.007 73.2185 229.1 73.2968 230.26 73.385C231.431 73.4829 232.581 73.5612 233.722 73.6493L233.703 73.6787C235.624 73.8451 236.99 74.4326 237.809 75.4313C238.628 76.4397 239.008 77.9769 238.96 80.0722L238.813 86.5146C238.764 88.4728 238.335 89.8044 237.506 90.4897C236.668 91.1751 235.283 91.4297 233.303 91.2632C232.279 91.1066 231.265 91.0087 230.251 90.9597C229.227 90.901 228.251 90.8324 227.325 90.7443C226.389 90.666 225.56 90.6268 224.809 90.5975L223.053 90.5485C220.956 90.4996 219.181 90.6366 217.738 90.9303C216.285 91.2339 215.105 91.9192 214.178 93.006C213.252 94.083 212.55 95.6496 212.091 97.6959C211.613 99.752 211.35 102.493 211.272 105.93Z" fill="url(#paint8_linear_3608_9875)"/>
<defs>
<linearGradient id="paint0_linear_3608_9875" x1="362.798" y1="0.00178583" x2="75.6528" y2="137.174" gradientUnits="userSpaceOnUse">
<stop stop-color="#00E9D2"/>
<stop offset="0.87755" stop-color="#009DFD"/>
</linearGradient>
<linearGradient id="paint1_linear_3608_9875" x1="362.798" y1="0.00178583" x2="75.6528" y2="137.174" gradientUnits="userSpaceOnUse">
<stop stop-color="#00E9D2"/>
<stop offset="0.87755" stop-color="#009DFD"/>
</linearGradient>
<linearGradient id="paint2_linear_3608_9875" x1="362.798" y1="0.00178583" x2="75.6528" y2="137.174" gradientUnits="userSpaceOnUse">
<stop stop-color="#00E9D2"/>
<stop offset="0.87755" stop-color="#009DFD"/>
</linearGradient>
<linearGradient id="paint3_linear_3608_9875" x1="362.798" y1="0.00178583" x2="75.6528" y2="137.174" gradientUnits="userSpaceOnUse">
<stop stop-color="#00E9D2"/>
<stop offset="0.87755" stop-color="#009DFD"/>
</linearGradient>
<linearGradient id="paint4_linear_3608_9875" x1="362.798" y1="0.00178583" x2="75.6528" y2="137.174" gradientUnits="userSpaceOnUse">
<stop stop-color="#00E9D2"/>
<stop offset="0.87755" stop-color="#009DFD"/>
</linearGradient>
<linearGradient id="paint5_linear_3608_9875" x1="362.798" y1="0.00178583" x2="75.6528" y2="137.174" gradientUnits="userSpaceOnUse">
<stop stop-color="#00E9D2"/>
<stop offset="0.87755" stop-color="#009DFD"/>
</linearGradient>
<linearGradient id="paint6_linear_3608_9875" x1="362.798" y1="0.00178583" x2="75.6528" y2="137.174" gradientUnits="userSpaceOnUse">
<stop stop-color="#00E9D2"/>
<stop offset="0.87755" stop-color="#009DFD"/>
</linearGradient>
<linearGradient id="paint7_linear_3608_9875" x1="362.798" y1="0.00178583" x2="75.6528" y2="137.174" gradientUnits="userSpaceOnUse">
<stop stop-color="#00E9D2"/>
<stop offset="0.87755" stop-color="#009DFD"/>
</linearGradient>
<linearGradient id="paint8_linear_3608_9875" x1="362.798" y1="0.00178583" x2="75.6528" y2="137.174" gradientUnits="userSpaceOnUse">
<stop stop-color="#00E9D2"/>
<stop offset="0.87755" stop-color="#009DFD"/>
</linearGradient>
</defs>
</svg>
