<svg width="418" height="52" viewBox="0 0 418 52" fill="none" xmlns="http://www.w3.org/2000/svg">
<rect width="418" height="51.8319" fill="#D2AB75"/>
<path d="M32.2952 36.416H28.1245V16.126H32.577L37.9313 24.9183H38.3822L43.7365 16.126H48.189V36.416H44.0183V23.7348H43.5674L39.7067 30.2726H36.6068L32.7461 23.7348H32.2952V36.416ZM65.0661 36.416H51.7367V16.126H65.0661V19.9022H55.9638V24.1293H62.5299V27.9055H55.9638V32.6398H65.0661V36.416ZM80.5749 36.416H67.7809V16.126H72.008V32.6398H80.5749V36.416ZM86.979 36.416H82.7519V16.126H86.979V24.3829H95.574V16.126H99.8011V36.416H95.574V28.1591H86.979V36.416ZM112.298 36.8669C109.78 36.8669 107.667 36.2094 105.957 34.8943C104.247 33.5604 103.177 31.6817 102.744 29.2581V23.2839C103.177 20.8603 104.247 18.991 105.957 17.6759C107.667 16.342 109.78 15.6751 112.298 15.6751C114.815 15.6751 116.929 16.342 118.638 17.6759C120.348 18.991 121.419 20.8603 121.851 23.2839V29.2581C121.419 31.6817 120.348 33.5604 118.638 34.8943C116.929 36.2094 114.815 36.8669 112.298 36.8669ZM112.298 33.0907C113.669 33.0907 114.825 32.7431 115.764 32.048C116.722 31.3341 117.342 30.3384 117.624 29.0609V23.4529C117.342 22.1754 116.731 21.1891 115.792 20.494C114.853 19.7989 113.688 19.4513 112.298 19.4513C110.907 19.4513 109.743 19.7989 108.803 20.494C107.864 21.1891 107.253 22.1754 106.972 23.4529V29.0609C107.253 30.3384 107.864 31.3341 108.803 32.048C109.761 32.7431 110.926 33.0907 112.298 33.0907ZM140.049 35.7115V36.416H135.822L132.271 29.3145H129.002V36.416H124.775V16.126H133.455C135.315 16.126 136.789 16.4829 137.879 17.1969C138.987 17.9108 139.617 18.8877 139.767 20.1276V25.0592C139.636 25.7731 139.26 26.4307 138.64 27.0319C138.039 27.6331 137.278 28.1121 136.357 28.4691L140.049 35.7115ZM129.002 25.5383H133.286C133.981 25.5383 134.516 25.4256 134.892 25.2001C135.286 24.9559 135.559 24.5614 135.709 24.0166V21.4239C135.559 20.8791 135.286 20.494 134.892 20.2685C134.516 20.0243 133.981 19.9022 133.286 19.9022H129.002V25.5383ZM148.69 36.416V16.126H156.919C158.591 16.126 159.972 16.4548 161.061 17.1123C162.17 17.7511 162.931 18.7092 163.344 19.9867V25.5383C162.931 26.8158 162.16 27.7834 161.033 28.4409C159.925 29.0985 158.553 29.4272 156.919 29.4272H152.917V36.416H148.69ZM156.581 25.651C157.313 25.651 157.896 25.5195 158.328 25.2565C158.76 24.9747 159.079 24.552 159.286 23.9884V21.5648C159.079 21.0012 158.76 20.5879 158.328 20.3249C157.896 20.0431 157.313 19.9022 156.581 19.9022H152.917V25.651H156.581ZM181.191 35.7115V36.416H176.964L173.414 29.3145H170.145V36.416H165.918V16.126H174.597C176.457 16.126 177.932 16.4829 179.022 17.1969C180.13 17.9108 180.759 18.8877 180.91 20.1276V25.0592C180.778 25.7731 180.402 26.4307 179.782 27.0319C179.181 27.6331 178.42 28.1121 177.5 28.4691L181.191 35.7115ZM170.145 25.5383H174.428C175.123 25.5383 175.659 25.4256 176.034 25.2001C176.429 24.9559 176.701 24.5614 176.852 24.0166V21.4239C176.701 20.8791 176.429 20.494 176.034 20.2685C175.659 20.0243 175.123 19.9022 174.428 19.9022H170.145V25.5383ZM197.355 36.416H184.026V16.126H197.355V19.9022H188.253V24.1293H194.819V27.9055H188.253V32.6398H197.355V36.416ZM208.646 33.0907C209.698 33.0907 210.637 32.9028 211.464 32.5271C212.29 32.1514 213.07 31.5408 213.803 30.6954L216.621 33.4289C215.794 34.3682 214.92 35.1009 214 35.627C213.098 36.153 212.065 36.51 210.9 36.6978C211.295 37.2239 211.492 37.9002 211.492 38.7268C211.492 39.9292 211.097 40.8779 210.308 41.5731C209.519 42.2682 208.486 42.6157 207.208 42.6157H205.63V39.7413H206.363C207.039 39.7413 207.546 39.6004 207.885 39.3186C208.223 39.0368 208.392 38.6423 208.392 38.135C208.392 37.609 208.223 37.1769 207.885 36.8387C205.574 36.6884 203.648 35.9557 202.108 34.6406C200.567 33.3068 199.562 31.5126 199.092 29.2581V23.2839C199.6 20.8979 200.689 19.038 202.361 17.7041C204.052 16.3514 206.147 15.6751 208.646 15.6751C210.412 15.6751 211.924 15.9381 213.183 16.4642C214.441 16.9902 215.606 17.8544 216.677 19.0568L213.887 21.7621C213.117 20.8979 212.347 20.2967 211.576 19.9586C210.806 19.6204 209.895 19.4513 208.843 19.4513C207.453 19.4513 206.278 19.7707 205.32 20.4094C204.362 21.0482 203.695 21.9688 203.319 23.1711V29.3709C203.695 30.5545 204.343 31.475 205.264 32.1326C206.203 32.7713 207.33 33.0907 208.646 33.0907ZM227.332 36.8669C224.814 36.8669 222.701 36.2094 220.991 34.8943C219.281 33.5604 218.211 31.6817 217.778 29.2581V23.2839C218.211 20.8603 219.281 18.991 220.991 17.6759C222.701 16.342 224.814 15.6751 227.332 15.6751C229.849 15.6751 231.963 16.342 233.672 17.6759C235.382 18.991 236.453 20.8603 236.885 23.2839V29.2581C236.453 31.6817 235.382 33.5604 233.672 34.8943C231.963 36.2094 229.849 36.8669 227.332 36.8669ZM227.332 33.0907C228.703 33.0907 229.859 32.7431 230.798 32.048C231.756 31.3341 232.376 30.3384 232.658 29.0609V23.4529C232.376 22.1754 231.765 21.1891 230.826 20.494C229.887 19.7989 228.722 19.4513 227.332 19.4513C225.941 19.4513 224.777 19.7989 223.837 20.494C222.898 21.1891 222.287 22.1754 222.006 23.4529V29.0609C222.287 30.3384 222.898 31.3341 223.837 32.048C224.795 32.7431 225.96 33.0907 227.332 33.0907ZM249.843 36.416H245.616V16.126H249.843V24.3829H258.438V16.126H262.665V36.416H258.438V28.1591H249.843V36.416ZM270.455 36.416H266.228V16.126H270.455V36.416ZM280.667 36.8669C278.864 36.8669 277.276 36.5381 275.905 35.8806C274.552 35.2043 273.462 34.2179 272.636 32.9216L275.623 30.1317C276.412 31.165 277.192 31.9165 277.962 32.3862C278.732 32.8559 279.596 33.0907 280.554 33.0907C281.419 33.0907 282.133 32.9498 282.696 32.668C283.279 32.3674 283.692 31.9353 283.936 31.3717V30.0472C283.823 29.6902 283.56 29.3803 283.147 29.1172C282.753 28.8354 282.142 28.5818 281.315 28.3564L278.807 27.68C277.267 27.2479 276.083 26.6467 275.257 25.8765C274.449 25.0874 273.904 24.1011 273.622 22.9175V20.3813C273.81 19.4983 274.242 18.6998 274.918 17.9859C275.613 17.272 276.478 16.7084 277.511 16.2951C278.563 15.8818 279.69 15.6751 280.893 15.6751C282.452 15.6751 283.823 15.9569 285.007 16.5205C286.191 17.0841 287.233 17.9577 288.135 19.1413L285.176 21.8185C284.519 20.9355 283.861 20.3249 283.203 19.9867C282.565 19.6298 281.785 19.4513 280.864 19.4513C280.169 19.4513 279.568 19.5922 279.061 19.874C278.572 20.1558 278.187 20.5503 277.905 21.0576V22.1848C278.075 22.5981 278.347 22.9551 278.723 23.2557C279.098 23.5375 279.625 23.7629 280.301 23.932L283.063 24.6929C286.144 25.5383 287.825 26.8628 288.107 28.6664V32.4707C287.75 33.767 286.904 34.8285 285.571 35.6551C284.256 36.463 282.621 36.8669 280.667 36.8669ZM298.957 36.416H294.73V19.9022H289.093V16.126H304.593V19.9022H298.957V36.416ZM314.956 36.8669C312.438 36.8669 310.325 36.2094 308.615 34.8943C306.905 33.5604 305.835 31.6817 305.402 29.2581V23.2839C305.835 20.8603 306.905 18.991 308.615 17.6759C310.325 16.342 312.438 15.6751 314.956 15.6751C317.473 15.6751 319.587 16.342 321.296 17.6759C323.006 18.991 324.077 20.8603 324.509 23.2839V29.2581C324.077 31.6817 323.006 33.5604 321.296 34.8943C319.587 36.2094 317.473 36.8669 314.956 36.8669ZM314.956 33.0907C316.327 33.0907 317.483 32.7431 318.422 32.048C319.38 31.3341 320 30.3384 320.282 29.0609V23.4529C320 22.1754 319.389 21.1891 318.45 20.494C317.511 19.7989 316.346 19.4513 314.956 19.4513C313.565 19.4513 312.401 19.7989 311.461 20.494C310.522 21.1891 309.911 22.1754 309.63 23.4529V29.0609C309.911 30.3384 310.522 31.3341 311.461 32.048C312.419 32.7431 313.584 33.0907 314.956 33.0907ZM316.449 14.2661H313.462V13.5616L315.491 9.70082H320.169V10.4053L316.449 14.2661ZM342.707 35.7115V36.416H338.48L334.929 29.3145H331.66V36.416H327.433V16.126H336.113C337.973 16.126 339.447 16.4829 340.537 17.1969C341.645 17.9108 342.275 18.8877 342.425 20.1276V25.0592C342.294 25.7731 341.918 26.4307 341.298 27.0319C340.697 27.6331 339.936 28.1121 339.015 28.4691L342.707 35.7115ZM331.66 25.5383H335.944C336.639 25.5383 337.174 25.4256 337.55 25.2001C337.944 24.9559 338.217 24.5614 338.367 24.0166V21.4239C338.217 20.8791 337.944 20.494 337.55 20.2685C337.174 20.0243 336.639 19.9022 335.944 19.9022H331.66V25.5383ZM349.768 36.416H345.541V16.126H349.768V36.416ZM362.263 36.8669C359.764 36.8669 357.669 36.2 355.978 34.8661C354.306 33.5134 353.217 31.6441 352.71 29.2581V23.2839C353.217 20.8979 354.306 19.038 355.978 17.7041C357.669 16.3514 359.764 15.6751 362.263 15.6751C364.029 15.6751 365.541 15.9381 366.8 16.4642C368.059 16.9902 369.223 17.8544 370.294 19.0568L367.504 21.7621C366.734 20.8979 365.964 20.2967 365.194 19.9586C364.423 19.6204 363.512 19.4513 362.46 19.4513C361.07 19.4513 359.896 19.7707 358.937 20.4094C357.979 21.0482 357.312 21.9688 356.937 23.1711V29.3709C357.312 30.5545 357.961 31.475 358.881 32.1326C359.82 32.7713 360.948 33.0907 362.263 33.0907C363.315 33.0907 364.254 32.9028 365.081 32.5271C365.907 32.1514 366.687 31.5408 367.42 30.6954L370.238 33.4289C369.167 34.6312 368.002 35.5048 366.743 36.0497C365.485 36.5945 363.991 36.8669 362.263 36.8669ZM380.949 36.8669C378.431 36.8669 376.318 36.2094 374.608 34.8943C372.899 33.5604 371.828 31.6817 371.396 29.2581V23.2839C371.828 20.8603 372.899 18.991 374.608 17.6759C376.318 16.342 378.431 15.6751 380.949 15.6751C383.466 15.6751 385.58 16.342 387.29 17.6759C388.999 18.991 390.07 20.8603 390.502 23.2839V29.2581C390.07 31.6817 388.999 33.5604 387.29 34.8943C385.58 36.2094 383.466 36.8669 380.949 36.8669ZM380.949 33.0907C382.32 33.0907 383.476 32.7431 384.415 32.048C385.373 31.3341 385.993 30.3384 386.275 29.0609V23.4529C385.993 22.1754 385.383 21.1891 384.443 20.494C383.504 19.7989 382.339 19.4513 380.949 19.4513C379.559 19.4513 378.394 19.7989 377.455 20.494C376.515 21.1891 375.905 22.1754 375.623 23.4529V29.0609C375.905 30.3384 376.515 31.3341 377.455 32.048C378.413 32.7431 379.577 33.0907 380.949 33.0907Z" fill="black"/>
</svg>
