<svg width="418" height="52" viewBox="0 0 418 52" fill="none" xmlns="http://www.w3.org/2000/svg">
<rect width="418" height="51.8319" fill="#ED1C24"/>
<path d="M39.4367 36.416H35.2659V16.126H39.7185L45.0728 24.9183H45.5237L50.878 16.126H55.3305V36.416H51.1598V23.7348H50.7089L46.8482 30.2726H43.7483L39.8875 23.7348H39.4367V36.416ZM72.2076 36.416H58.8782V16.126H72.2076V19.9022H63.1053V24.1293H69.6713V27.9055H63.1053V32.6398H72.2076V36.416ZM79.0368 36.416H74.9224V16.126H79.3186L87.66 28.6945H88.1109V16.126H92.2253V36.416H87.8291L79.4877 23.8757H79.0368V36.416ZM104.716 36.8669C102.198 36.8669 100.085 36.2094 98.3752 34.8943C96.6656 33.5604 95.5948 31.6817 95.1627 29.2581V23.2839C95.5948 20.8603 96.6656 18.991 98.3752 17.6759C100.085 16.342 102.198 15.6751 104.716 15.6751C107.233 15.6751 109.347 16.342 111.057 17.6759C112.766 18.991 113.837 20.8603 114.269 23.2839V29.2581C113.837 31.6817 112.766 33.5604 111.057 34.8943C109.347 36.2094 107.233 36.8669 104.716 36.8669ZM104.716 33.0907C106.087 33.0907 107.243 32.7431 108.182 32.048C109.14 31.3341 109.76 30.3384 110.042 29.0609V23.4529C109.76 22.1754 109.15 21.1891 108.21 20.494C107.271 19.7989 106.106 19.4513 104.716 19.4513C103.326 19.4513 102.161 19.7989 101.221 20.494C100.282 21.1891 99.6716 22.1754 99.3898 23.4529V29.0609C99.6716 30.3384 100.282 31.3341 101.221 32.048C102.18 32.7431 103.344 33.0907 104.716 33.0907ZM132.467 35.7115V36.416H128.24L124.689 29.3145H121.42V36.416H117.193V16.126H125.873C127.733 16.126 129.208 16.4829 130.297 17.1969C131.406 17.9108 132.035 18.8877 132.185 20.1276V25.0592C132.054 25.7731 131.678 26.4307 131.058 27.0319C130.457 27.6331 129.696 28.1121 128.775 28.4691L132.467 35.7115ZM121.42 25.5383H125.704C126.399 25.5383 126.934 25.4256 127.31 25.2001C127.705 24.9559 127.977 24.5614 128.127 24.0166V21.4239C127.977 20.8791 127.705 20.494 127.31 20.2685C126.934 20.0243 126.399 19.9022 125.704 19.9022H121.42V25.5383ZM141.108 36.416V16.126H149.337C151.009 16.126 152.39 16.4548 153.48 17.1123C154.588 17.7511 155.349 18.7092 155.762 19.9867V25.5383C155.349 26.8158 154.579 27.7834 153.451 28.4409C152.343 29.0985 150.971 29.4272 149.337 29.4272H145.335V36.416H141.108ZM148.999 25.651C149.731 25.651 150.314 25.5195 150.746 25.2565C151.178 24.9747 151.497 24.552 151.704 23.9884V21.5648C151.497 21.0012 151.178 20.5879 150.746 20.3249C150.314 20.0431 149.731 19.9022 148.999 19.9022H145.335V25.651H148.999ZM173.61 35.7115V36.416H169.383L165.832 29.3145H162.563V36.416H158.336V16.126H167.015C168.875 16.126 170.35 16.4829 171.44 17.1969C172.548 17.9108 173.178 18.8877 173.328 20.1276V25.0592C173.196 25.7731 172.821 26.4307 172.201 27.0319C171.599 27.6331 170.839 28.1121 169.918 28.4691L173.61 35.7115ZM162.563 25.5383H166.846C167.541 25.5383 168.077 25.4256 168.453 25.2001C168.847 24.9559 169.12 24.5614 169.27 24.0166V21.4239C169.12 20.8791 168.847 20.494 168.453 20.2685C168.077 20.0243 167.541 19.9022 166.846 19.9022H162.563V25.5383ZM189.773 36.416H176.444V16.126H189.773V19.9022H180.671V24.1293H187.237V27.9055H180.671V32.6398H189.773V36.416ZM201.064 33.0907C202.116 33.0907 203.055 32.9028 203.882 32.5271C204.708 32.1514 205.488 31.5408 206.221 30.6954L209.039 33.4289C208.212 34.3682 207.339 35.1009 206.418 35.627C205.516 36.153 204.483 36.51 203.318 36.6978C203.713 37.2239 203.91 37.9002 203.91 38.7268C203.91 39.9292 203.515 40.8779 202.726 41.5731C201.937 42.2682 200.904 42.6157 199.627 42.6157H198.048V39.7413H198.781C199.457 39.7413 199.965 39.6004 200.303 39.3186C200.641 39.0368 200.81 38.6423 200.81 38.135C200.81 37.609 200.641 37.1769 200.303 36.8387C197.992 36.6884 196.066 35.9557 194.526 34.6406C192.985 33.3068 191.98 31.5126 191.511 29.2581V23.2839C192.018 20.8979 193.107 19.038 194.779 17.7041C196.47 16.3514 198.565 15.6751 201.064 15.6751C202.83 15.6751 204.342 15.9381 205.601 16.4642C206.86 16.9902 208.024 17.8544 209.095 19.0568L206.305 21.7621C205.535 20.8979 204.765 20.2967 203.995 19.9586C203.224 19.6204 202.313 19.4513 201.261 19.4513C199.871 19.4513 198.697 19.7707 197.738 20.4094C196.78 21.0482 196.113 21.9688 195.738 23.1711V29.3709C196.113 30.5545 196.762 31.475 197.682 32.1326C198.621 32.7713 199.749 33.0907 201.064 33.0907ZM219.75 36.8669C217.232 36.8669 215.119 36.2094 213.409 34.8943C211.7 33.5604 210.629 31.6817 210.197 29.2581V23.2839C210.629 20.8603 211.7 18.991 213.409 17.6759C215.119 16.342 217.232 15.6751 219.75 15.6751C222.267 15.6751 224.381 16.342 226.091 17.6759C227.8 18.991 228.871 20.8603 229.303 23.2839V29.2581C228.871 31.6817 227.8 33.5604 226.091 34.8943C224.381 36.2094 222.267 36.8669 219.75 36.8669ZM219.75 33.0907C221.121 33.0907 222.277 32.7431 223.216 32.048C224.174 31.3341 224.794 30.3384 225.076 29.0609V23.4529C224.794 22.1754 224.184 21.1891 223.244 20.494C222.305 19.7989 221.14 19.4513 219.75 19.4513C218.36 19.4513 217.195 19.7989 216.256 20.494C215.316 21.1891 214.706 22.1754 214.424 23.4529V29.0609C214.706 30.3384 215.316 31.3341 216.256 32.048C217.214 32.7431 218.378 33.0907 219.75 33.0907ZM251.363 36.416H238.034V16.126H251.363V19.9022H242.261V24.1293H248.827V27.9055H242.261V32.6398H251.363V36.416ZM258.249 36.416H254.078V16.126H258.531L263.885 24.9183H264.336L269.69 16.126H274.143V36.416H269.972V23.7348H269.521L265.66 30.2726H262.561L258.7 23.7348H258.249V36.416ZM289.302 36.8669C287.555 36.8669 286.099 36.4818 284.934 35.7115C283.788 34.9224 282.877 33.7201 282.201 32.1044L285.695 30.1881C286.447 32.1983 287.659 33.2034 289.331 33.2034C290.138 33.2034 290.796 33.0531 291.303 32.7525C291.811 32.4332 292.158 32.0011 292.346 31.4562V28.92C292.008 27.7552 290.937 27.1728 289.133 27.1728H287.696L287.273 26.7501V23.9884L291.444 19.7895H283.159V16.126H295.784V19.7895L291.726 24.242C294.3 24.4674 295.822 25.7168 296.291 27.99V32.1889C295.915 33.6731 295.108 34.8285 293.868 35.6551C292.647 36.463 291.125 36.8669 289.302 36.8669ZM306.366 36.8669C304.337 36.8669 302.665 36.3033 301.35 35.1761C300.054 34.0301 299.237 32.3392 298.899 30.1036V22.4384C299.256 20.2216 300.082 18.5401 301.379 17.3941C302.694 16.2481 304.356 15.6751 306.366 15.6751C308.377 15.6751 310.03 16.2481 311.326 17.3941C312.641 18.5401 313.477 20.2216 313.834 22.4384V30.1036C313.496 32.3392 312.67 34.0301 311.354 35.1761C310.058 36.3033 308.395 36.8669 306.366 36.8669ZM306.366 33.2034C307.306 33.2034 308.095 32.931 308.734 32.3862C309.372 31.8414 309.758 31.0335 309.889 29.9627V22.5793C309.758 21.5085 309.372 20.7006 308.734 20.1558C308.095 19.611 307.306 19.3386 306.366 19.3386C305.427 19.3386 304.638 19.611 303.999 20.1558C303.361 20.7006 302.975 21.5085 302.844 22.5793V29.9627C302.975 31.0335 303.361 31.8414 303.999 32.3862C304.638 32.931 305.427 33.2034 306.366 33.2034ZM322.768 36.416V16.126H330.18C335.121 16.126 338.089 18.1738 339.085 22.2694V30.0754C338.089 34.3025 335.121 36.416 330.18 36.416H322.768ZM330.264 32.6398C331.73 32.6398 332.81 32.3956 333.505 31.9071C334.2 31.3999 334.651 30.5732 334.858 29.4272V23.0866C334.651 21.9594 334.191 21.1515 333.477 20.6631C332.782 20.1558 331.711 19.9022 330.264 19.9022H326.996V32.6398H330.264ZM346.342 36.416H342.115V16.126H346.342V36.416ZM355.314 16.126H360.612L367.657 35.7115V36.416H363.317L361.852 32.1326H354.074L352.609 36.416H348.269V35.7115L355.314 16.126ZM357.737 21.3394L355.342 28.3564H360.584L358.188 21.3394H357.737ZM376.038 36.8669C374.235 36.8669 372.647 36.5381 371.276 35.8806C369.923 35.2043 368.833 34.2179 368.007 32.9216L370.994 30.1317C371.783 31.165 372.563 31.9165 373.333 32.3862C374.103 32.8559 374.967 33.0907 375.925 33.0907C376.79 33.0907 377.504 32.9498 378.067 32.668C378.65 32.3674 379.063 31.9353 379.307 31.3717V30.0472C379.194 29.6902 378.931 29.3803 378.518 29.1172C378.123 28.8354 377.513 28.5818 376.686 28.3564L374.178 27.68C372.638 27.2479 371.454 26.6467 370.627 25.8765C369.82 25.0874 369.275 24.1011 368.993 22.9175V20.3813C369.181 19.4983 369.613 18.6998 370.289 17.9859C370.984 17.272 371.849 16.7084 372.882 16.2951C373.934 15.8818 375.061 15.6751 376.264 15.6751C377.823 15.6751 379.194 15.9569 380.378 16.5205C381.562 17.0841 382.604 17.9577 383.506 19.1413L380.547 21.8185C379.889 20.9355 379.232 20.3249 378.574 19.9867C377.936 19.6298 377.156 19.4513 376.235 19.4513C375.54 19.4513 374.939 19.5922 374.432 19.874C373.943 20.1558 373.558 20.5503 373.276 21.0576V22.1848C373.446 22.5981 373.718 22.9551 374.094 23.2557C374.469 23.5375 374.995 23.7629 375.672 23.932L378.433 24.6929C381.515 25.5383 383.196 26.8628 383.478 28.6664V32.4707C383.121 33.767 382.275 34.8285 380.942 35.6551C379.626 36.463 377.992 36.8669 376.038 36.8669Z" fill="white"/>
</svg>
