<svg width="418" height="52" viewBox="0 0 418 52" fill="none" xmlns="http://www.w3.org/2000/svg">
<rect width="418" height="51.8319" fill="#ED1C24"/>
<path d="M39.1064 36.416H34.9357V16.126H39.3882L44.7425 24.9183H45.1934L50.5477 16.126H55.0003V36.416H50.8295V23.7348H50.3786L46.5179 30.2726H43.418L39.5573 23.7348H39.1064V36.416ZM71.8773 36.416H58.5479V16.126H71.8773V19.9022H62.775V24.1293H69.3411V27.9055H62.775V32.6398H71.8773V36.416ZM78.7065 36.416H74.5922V16.126H78.9883L87.3298 28.6945H87.7807V16.126H91.895V36.416H87.4989L79.1574 23.8757H78.7065V36.416ZM104.386 36.8669C101.868 36.8669 99.7546 36.2094 98.045 34.8943C96.3354 33.5604 95.2645 31.6817 94.8324 29.2581V23.2839C95.2645 20.8603 96.3354 18.991 98.045 17.6759C99.7546 16.342 101.868 15.6751 104.386 15.6751C106.903 15.6751 109.017 16.342 110.726 17.6759C112.436 18.991 113.507 20.8603 113.939 23.2839V29.2581C113.507 31.6817 112.436 33.5604 110.726 34.8943C109.017 36.2094 106.903 36.8669 104.386 36.8669ZM104.386 33.0907C105.757 33.0907 106.912 32.7431 107.852 32.048C108.81 31.3341 109.43 30.3384 109.712 29.0609V23.4529C109.43 22.1754 108.819 21.1891 107.88 20.494C106.941 19.7989 105.776 19.4513 104.386 19.4513C102.995 19.4513 101.831 19.7989 100.891 20.494C99.9519 21.1891 99.3413 22.1754 99.0595 23.4529V29.0609C99.3413 30.3384 99.9519 31.3341 100.891 32.048C101.849 32.7431 103.014 33.0907 104.386 33.0907ZM132.137 35.7115V36.416H127.91L124.359 29.3145H121.09V36.416H116.863V16.126H125.543C127.403 16.126 128.877 16.4829 129.967 17.1969C131.075 17.9108 131.705 18.8877 131.855 20.1276V25.0592C131.724 25.7731 131.348 26.4307 130.728 27.0319C130.127 27.6331 129.366 28.1121 128.445 28.4691L132.137 35.7115ZM121.09 25.5383H125.374C126.069 25.5383 126.604 25.4256 126.98 25.2001C127.374 24.9559 127.647 24.5614 127.797 24.0166V21.4239C127.647 20.8791 127.374 20.494 126.98 20.2685C126.604 20.0243 126.069 19.9022 125.374 19.9022H121.09V25.5383ZM140.778 36.416V16.126H149.007C150.679 16.126 152.06 16.4548 153.149 17.1123C154.258 17.7511 155.019 18.7092 155.432 19.9867V25.5383C155.019 26.8158 154.248 27.7834 153.121 28.4409C152.013 29.0985 150.641 29.4272 149.007 29.4272H145.005V36.416H140.778ZM148.669 25.651C149.401 25.651 149.984 25.5195 150.416 25.2565C150.848 24.9747 151.167 24.552 151.374 23.9884V21.5648C151.167 21.0012 150.848 20.5879 150.416 20.3249C149.984 20.0431 149.401 19.9022 148.669 19.9022H145.005V25.651H148.669ZM173.279 35.7115V36.416H169.052L165.502 29.3145H162.233V36.416H158.006V16.126H166.685C168.545 16.126 170.02 16.4829 171.11 17.1969C172.218 17.9108 172.847 18.8877 172.998 20.1276V25.0592C172.866 25.7731 172.49 26.4307 171.87 27.0319C171.269 27.6331 170.508 28.1121 169.588 28.4691L173.279 35.7115ZM162.233 25.5383H166.516C167.211 25.5383 167.747 25.4256 168.122 25.2001C168.517 24.9559 168.789 24.5614 168.94 24.0166V21.4239C168.789 20.8791 168.517 20.494 168.122 20.2685C167.747 20.0243 167.211 19.9022 166.516 19.9022H162.233V25.5383ZM189.443 36.416H176.114V16.126H189.443V19.9022H180.341V24.1293H186.907V27.9055H180.341V32.6398H189.443V36.416ZM200.734 33.0907C201.786 33.0907 202.725 32.9028 203.552 32.5271C204.378 32.1514 205.158 31.5408 205.891 30.6954L208.709 33.4289C207.882 34.3682 207.008 35.1009 206.088 35.627C205.186 36.153 204.153 36.51 202.988 36.6978C203.382 37.2239 203.58 37.9002 203.58 38.7268C203.58 39.9292 203.185 40.8779 202.396 41.5731C201.607 42.2682 200.574 42.6157 199.296 42.6157H197.718V39.7413H198.451C199.127 39.7413 199.634 39.6004 199.973 39.3186C200.311 39.0368 200.48 38.6423 200.48 38.135C200.48 37.609 200.311 37.1769 199.973 36.8387C197.662 36.6884 195.736 35.9557 194.196 34.6406C192.655 33.3068 191.65 31.5126 191.18 29.2581V23.2839C191.688 20.8979 192.777 19.038 194.449 17.7041C196.14 16.3514 198.235 15.6751 200.734 15.6751C202.499 15.6751 204.012 15.9381 205.271 16.4642C206.529 16.9902 207.694 17.8544 208.765 19.0568L205.975 21.7621C205.205 20.8979 204.435 20.2967 203.664 19.9586C202.894 19.6204 201.983 19.4513 200.931 19.4513C199.541 19.4513 198.366 19.7707 197.408 20.4094C196.45 21.0482 195.783 21.9688 195.407 23.1711V29.3709C195.783 30.5545 196.431 31.475 197.352 32.1326C198.291 32.7713 199.418 33.0907 200.734 33.0907ZM219.42 36.8669C216.902 36.8669 214.789 36.2094 213.079 34.8943C211.369 33.5604 210.299 31.6817 209.866 29.2581V23.2839C210.299 20.8603 211.369 18.991 213.079 17.6759C214.789 16.342 216.902 15.6751 219.42 15.6751C221.937 15.6751 224.051 16.342 225.76 17.6759C227.47 18.991 228.541 20.8603 228.973 23.2839V29.2581C228.541 31.6817 227.47 33.5604 225.76 34.8943C224.051 36.2094 221.937 36.8669 219.42 36.8669ZM219.42 33.0907C220.791 33.0907 221.947 32.7431 222.886 32.048C223.844 31.3341 224.464 30.3384 224.746 29.0609V23.4529C224.464 22.1754 223.853 21.1891 222.914 20.494C221.975 19.7989 220.81 19.4513 219.42 19.4513C218.029 19.4513 216.865 19.7989 215.925 20.494C214.986 21.1891 214.375 22.1754 214.094 23.4529V29.0609C214.375 30.3384 214.986 31.3341 215.925 32.048C216.883 32.7431 218.048 33.0907 219.42 33.0907ZM251.033 36.416H237.704V16.126H251.033V19.9022H241.931V24.1293H248.497V27.9055H241.931V32.6398H251.033V36.416ZM257.919 36.416H253.748V16.126H258.201L263.555 24.9183H264.006L269.36 16.126H273.813V36.416H269.642V23.7348H269.191L265.33 30.2726H262.23L258.37 23.7348H257.919V36.416ZM289.649 36.8669C287.789 36.8669 286.201 36.3315 284.886 35.2606C283.571 34.171 282.754 32.7244 282.434 30.9208V29.4272V27.8491C282.585 27.154 282.716 26.628 282.829 26.271C282.96 25.9141 283.129 25.5571 283.336 25.2001C283.543 24.8432 283.796 24.4393 284.097 23.9884L289.085 16.126H293.312V16.8305L289.62 22.3257H290.071C292.063 22.3257 293.641 22.8142 294.806 23.7911C295.989 24.768 296.684 26.1207 296.891 27.8491V29.4272V30.9208C296.741 32.0856 296.327 33.1189 295.651 34.0207C294.993 34.9224 294.139 35.627 293.087 36.1342C292.053 36.6227 290.907 36.8669 289.649 36.8669ZM289.649 33.2034C290.607 33.2034 291.349 33.0062 291.875 32.6116C292.401 32.1983 292.758 31.5596 292.946 30.6954V29.4554V28.1309C292.758 27.2667 292.391 26.6374 291.847 26.2428C291.321 25.8295 290.588 25.6229 289.649 25.6229C288.803 25.6229 288.08 25.8483 287.479 26.2992C286.896 26.7501 286.53 27.3607 286.38 28.1309V29.4272V30.6954C286.53 31.4281 286.906 32.0292 287.507 32.4989C288.127 32.9686 288.841 33.2034 289.649 33.2034ZM306.697 36.8669C304.668 36.8669 302.996 36.3033 301.681 35.1761C300.384 34.0301 299.567 32.3392 299.229 30.1036V22.4384C299.586 20.2216 300.412 18.5401 301.709 17.3941C303.024 16.2481 304.686 15.6751 306.697 15.6751C308.707 15.6751 310.36 16.2481 311.656 17.3941C312.972 18.5401 313.808 20.2216 314.165 22.4384V30.1036C313.826 32.3392 313 34.0301 311.685 35.1761C310.388 36.3033 308.726 36.8669 306.697 36.8669ZM306.697 33.2034C307.636 33.2034 308.425 32.931 309.064 32.3862C309.703 31.8414 310.088 31.0335 310.219 29.9627V22.5793C310.088 21.5085 309.703 20.7006 309.064 20.1558C308.425 19.611 307.636 19.3386 306.697 19.3386C305.757 19.3386 304.968 19.611 304.33 20.1558C303.691 20.7006 303.306 21.5085 303.174 22.5793V29.9627C303.306 31.0335 303.691 31.8414 304.33 32.3862C304.968 32.931 305.757 33.2034 306.697 33.2034ZM323.099 36.416V16.126H330.51C335.451 16.126 338.42 18.1738 339.415 22.2694V30.0754C338.42 34.3025 335.451 36.416 330.51 36.416H323.099ZM330.595 32.6398C332.06 32.6398 333.14 32.3956 333.835 31.9071C334.531 31.3999 334.981 30.5732 335.188 29.4272V23.0866C334.981 21.9594 334.521 21.1515 333.807 20.6631C333.112 20.1558 332.041 19.9022 330.595 19.9022H327.326V32.6398H330.595ZM346.672 36.416H342.445V16.126H346.672V36.416ZM355.644 16.126H360.942L367.987 35.7115V36.416H363.647L362.182 32.1326H354.404L352.939 36.416H348.599V35.7115L355.644 16.126ZM358.068 21.3394L355.672 28.3564H360.914L358.519 21.3394H358.068ZM376.368 36.8669C374.565 36.8669 372.977 36.5381 371.606 35.8806C370.253 35.2043 369.164 34.2179 368.337 32.9216L371.324 30.1317C372.113 31.165 372.893 31.9165 373.663 32.3862C374.433 32.8559 375.297 33.0907 376.256 33.0907C377.12 33.0907 377.834 32.9498 378.397 32.668C378.98 32.3674 379.393 31.9353 379.637 31.3717V30.0472C379.525 29.6902 379.262 29.3803 378.848 29.1172C378.454 28.8354 377.843 28.5818 377.017 28.3564L374.508 27.68C372.968 27.2479 371.784 26.6467 370.958 25.8765C370.15 25.0874 369.605 24.1011 369.323 22.9175V20.3813C369.511 19.4983 369.943 18.6998 370.62 17.9859C371.315 17.272 372.179 16.7084 373.212 16.2951C374.264 15.8818 375.391 15.6751 376.594 15.6751C378.153 15.6751 379.525 15.9569 380.708 16.5205C381.892 17.0841 382.934 17.9577 383.836 19.1413L380.877 21.8185C380.22 20.9355 379.562 20.3249 378.905 19.9867C378.266 19.6298 377.486 19.4513 376.566 19.4513C375.87 19.4513 375.269 19.5922 374.762 19.874C374.274 20.1558 373.888 20.5503 373.607 21.0576V22.1848C373.776 22.5981 374.048 22.9551 374.424 23.2557C374.8 23.5375 375.326 23.7629 376.002 23.932L378.764 24.6929C381.845 25.5383 383.526 26.8628 383.808 28.6664V32.4707C383.451 33.767 382.606 34.8285 381.272 35.6551C379.957 36.463 378.322 36.8669 376.368 36.8669Z" fill="white"/>
</svg>
