<svg width="418" height="52" viewBox="0 0 418 52" fill="none" xmlns="http://www.w3.org/2000/svg">
<rect width="418" height="51.8319" fill="#ED1C24"/>
<path d="M39.1202 36.416H34.9494V16.126H39.402L44.7563 24.9183H45.2072L50.5615 16.126H55.014V36.416H50.8433V23.7348H50.3924L46.5317 30.2726H43.4318L39.5711 23.7348H39.1202V36.416ZM71.8911 36.416H58.5617V16.126H71.8911V19.9022H62.7888V24.1293H69.3549V27.9055H62.7888V32.6398H71.8911V36.416ZM78.7203 36.416H74.6059V16.126H79.0021L87.3435 28.6945H87.7944V16.126H91.9088V36.416H87.5126L79.1712 23.8757H78.7203V36.416ZM104.399 36.8669C101.882 36.8669 99.7684 36.2094 98.0588 34.8943C96.3491 33.5604 95.2783 31.6817 94.8462 29.2581V23.2839C95.2783 20.8603 96.3491 18.991 98.0588 17.6759C99.7684 16.342 101.882 15.6751 104.399 15.6751C106.917 15.6751 109.03 16.342 110.74 17.6759C112.45 18.991 113.521 20.8603 113.953 23.2839V29.2581C113.521 31.6817 112.45 33.5604 110.74 34.8943C109.03 36.2094 106.917 36.8669 104.399 36.8669ZM104.399 33.0907C105.771 33.0907 106.926 32.7431 107.866 32.048C108.824 31.3341 109.444 30.3384 109.726 29.0609V23.4529C109.444 22.1754 108.833 21.1891 107.894 20.494C106.954 19.7989 105.79 19.4513 104.399 19.4513C103.009 19.4513 101.844 19.7989 100.905 20.494C99.9657 21.1891 99.3551 22.1754 99.0733 23.4529V29.0609C99.3551 30.3384 99.9657 31.3341 100.905 32.048C101.863 32.7431 103.028 33.0907 104.399 33.0907ZM132.151 35.7115V36.416H127.924L124.373 29.3145H121.104V36.416H116.877V16.126H125.556C127.416 16.126 128.891 16.4829 129.981 17.1969C131.089 17.9108 131.719 18.8877 131.869 20.1276V25.0592C131.737 25.7731 131.362 26.4307 130.742 27.0319C130.14 27.6331 129.38 28.1121 128.459 28.4691L132.151 35.7115ZM121.104 25.5383H125.387C126.082 25.5383 126.618 25.4256 126.994 25.2001C127.388 24.9559 127.661 24.5614 127.811 24.0166V21.4239C127.661 20.8791 127.388 20.494 126.994 20.2685C126.618 20.0243 126.082 19.9022 125.387 19.9022H121.104V25.5383ZM140.792 36.416V16.126H149.02C150.693 16.126 152.073 16.4548 153.163 17.1123C154.271 17.7511 155.032 18.7092 155.446 19.9867V25.5383C155.032 26.8158 154.262 27.7834 153.135 28.4409C152.026 29.0985 150.655 29.4272 149.02 29.4272H145.019V36.416H140.792ZM148.682 25.651C149.415 25.651 149.997 25.5195 150.43 25.2565C150.862 24.9747 151.181 24.552 151.388 23.9884V21.5648C151.181 21.0012 150.862 20.5879 150.43 20.3249C149.997 20.0431 149.415 19.9022 148.682 19.9022H145.019V25.651H148.682ZM173.293 35.7115V36.416H169.066L165.515 29.3145H162.246V36.416H158.019V16.126H166.699C168.559 16.126 170.034 16.4829 171.123 17.1969C172.232 17.9108 172.861 18.8877 173.011 20.1276V25.0592C172.88 25.7731 172.504 26.4307 171.884 27.0319C171.283 27.6331 170.522 28.1121 169.602 28.4691L173.293 35.7115ZM162.246 25.5383H166.53C167.225 25.5383 167.76 25.4256 168.136 25.2001C168.531 24.9559 168.803 24.5614 168.953 24.0166V21.4239C168.803 20.8791 168.531 20.494 168.136 20.2685C167.76 20.0243 167.225 19.9022 166.53 19.9022H162.246V25.5383ZM189.457 36.416H176.128V16.126H189.457V19.9022H180.355V24.1293H186.921V27.9055H180.355V32.6398H189.457V36.416ZM200.747 33.0907C201.799 33.0907 202.739 32.9028 203.565 32.5271C204.392 32.1514 205.172 31.5408 205.904 30.6954L208.722 33.4289C207.896 34.3682 207.022 35.1009 206.102 35.627C205.2 36.153 204.167 36.51 203.002 36.6978C203.396 37.2239 203.594 37.9002 203.594 38.7268C203.594 39.9292 203.199 40.8779 202.41 41.5731C201.621 42.2682 200.588 42.6157 199.31 42.6157H197.732V39.7413H198.465C199.141 39.7413 199.648 39.6004 199.986 39.3186C200.325 39.0368 200.494 38.6423 200.494 38.135C200.494 37.609 200.325 37.1769 199.986 36.8387C197.676 36.6884 195.75 35.9557 194.209 34.6406C192.669 33.3068 191.664 31.5126 191.194 29.2581V23.2839C191.701 20.8979 192.791 19.038 194.463 17.7041C196.154 16.3514 198.249 15.6751 200.747 15.6751C202.513 15.6751 204.026 15.9381 205.284 16.4642C206.543 16.9902 207.708 17.8544 208.779 19.0568L205.989 21.7621C205.219 20.8979 204.448 20.2967 203.678 19.9586C202.908 19.6204 201.997 19.4513 200.945 19.4513C199.554 19.4513 198.38 19.7707 197.422 20.4094C196.464 21.0482 195.797 21.9688 195.421 23.1711V29.3709C195.797 30.5545 196.445 31.475 197.366 32.1326C198.305 32.7713 199.432 33.0907 200.747 33.0907ZM219.433 36.8669C216.916 36.8669 214.802 36.2094 213.093 34.8943C211.383 33.5604 210.312 31.6817 209.88 29.2581V23.2839C210.312 20.8603 211.383 18.991 213.093 17.6759C214.802 16.342 216.916 15.6751 219.433 15.6751C221.951 15.6751 224.064 16.342 225.774 17.6759C227.484 18.991 228.555 20.8603 228.987 23.2839V29.2581C228.555 31.6817 227.484 33.5604 225.774 34.8943C224.064 36.2094 221.951 36.8669 219.433 36.8669ZM219.433 33.0907C220.805 33.0907 221.96 32.7431 222.9 32.048C223.858 31.3341 224.478 30.3384 224.76 29.0609V23.4529C224.478 22.1754 223.867 21.1891 222.928 20.494C221.988 19.7989 220.824 19.4513 219.433 19.4513C218.043 19.4513 216.878 19.7989 215.939 20.494C215 21.1891 214.389 22.1754 214.107 23.4529V29.0609C214.389 30.3384 215 31.3341 215.939 32.048C216.897 32.7431 218.062 33.0907 219.433 33.0907ZM251.047 36.416H237.718V16.126H251.047V19.9022H241.945V24.1293H248.511V27.9055H241.945V32.6398H251.047V36.416ZM257.933 36.416H253.762V16.126H258.214L263.569 24.9183H264.02L269.374 16.126H273.826V36.416H269.656V23.7348H269.205L265.344 30.2726H262.244L258.383 23.7348H257.933V36.416ZM289.606 15.6469C291.466 15.6469 293.053 16.1917 294.368 17.2814C295.684 18.3523 296.501 19.7895 296.82 21.593V23.0866V24.6647C296.67 25.3598 296.529 25.8859 296.397 26.2428C296.285 26.5998 296.125 26.9567 295.918 27.3137C295.712 27.6706 295.458 28.0746 295.158 28.5255L290.17 36.3878H285.942V35.6833L289.634 30.1881H289.183C287.192 30.1881 285.604 29.6996 284.421 28.7227C283.256 27.7458 282.57 26.3931 282.364 24.6647V23.0866V21.593C282.514 20.4282 282.918 19.3949 283.575 18.4932C284.252 17.5914 285.106 16.8963 286.14 16.4078C287.192 15.9005 288.347 15.6469 289.606 15.6469ZM289.606 19.3104C288.648 19.3104 287.906 19.5171 287.38 19.9304C286.854 20.3249 286.497 20.9543 286.309 21.8185V23.0584V24.3829C286.497 25.2471 286.854 25.8859 287.38 26.2992C287.925 26.6937 288.667 26.891 289.606 26.891C290.451 26.891 291.165 26.6655 291.748 26.2146C292.349 25.7638 292.725 25.1532 292.875 24.3829V23.0866V21.8185C292.725 21.0858 292.339 20.4846 291.719 20.0149C291.118 19.5452 290.414 19.3104 289.606 19.3104ZM306.683 36.8669C304.654 36.8669 302.982 36.3033 301.667 35.1761C300.37 34.0301 299.553 32.3392 299.215 30.1036V22.4384C299.572 20.2216 300.399 18.5401 301.695 17.3941C303.01 16.2481 304.673 15.6751 306.683 15.6751C308.693 15.6751 310.346 16.2481 311.643 17.3941C312.958 18.5401 313.794 20.2216 314.151 22.4384V30.1036C313.813 32.3392 312.986 34.0301 311.671 35.1761C310.375 36.3033 308.712 36.8669 306.683 36.8669ZM306.683 33.2034C307.622 33.2034 308.411 32.931 309.05 32.3862C309.689 31.8414 310.074 31.0335 310.205 29.9627V22.5793C310.074 21.5085 309.689 20.7006 309.05 20.1558C308.411 19.611 307.622 19.3386 306.683 19.3386C305.744 19.3386 304.955 19.611 304.316 20.1558C303.677 20.7006 303.292 21.5085 303.16 22.5793V29.9627C303.292 31.0335 303.677 31.8414 304.316 32.3862C304.955 32.931 305.744 33.2034 306.683 33.2034ZM323.085 36.416V16.126H330.496C335.437 16.126 338.406 18.1738 339.401 22.2694V30.0754C338.406 34.3025 335.437 36.416 330.496 36.416H323.085ZM330.581 32.6398C332.046 32.6398 333.127 32.3956 333.822 31.9071C334.517 31.3999 334.968 30.5732 335.174 29.4272V23.0866C334.968 21.9594 334.507 21.1515 333.794 20.6631C333.098 20.1558 332.028 19.9022 330.581 19.9022H327.312V32.6398H330.581ZM346.659 36.416H342.432V16.126H346.659V36.416ZM355.63 16.126H360.928L367.974 35.7115V36.416H363.634L362.168 32.1326H354.39L352.925 36.416H348.585V35.7115L355.63 16.126ZM358.054 21.3394L355.659 28.3564H360.9L358.505 21.3394H358.054ZM376.355 36.8669C374.551 36.8669 372.964 36.5381 371.592 35.8806C370.239 35.2043 369.15 34.2179 368.323 32.9216L371.31 30.1317C372.099 31.165 372.879 31.9165 373.649 32.3862C374.42 32.8559 375.284 33.0907 376.242 33.0907C377.106 33.0907 377.82 32.9498 378.384 32.668C378.966 32.3674 379.379 31.9353 379.624 31.3717V30.0472C379.511 29.6902 379.248 29.3803 378.834 29.1172C378.44 28.8354 377.829 28.5818 377.003 28.3564L374.495 27.68C372.954 27.2479 371.771 26.6467 370.944 25.8765C370.136 25.0874 369.591 24.1011 369.309 22.9175V20.3813C369.497 19.4983 369.929 18.6998 370.606 17.9859C371.301 17.272 372.165 16.7084 373.198 16.2951C374.25 15.8818 375.378 15.6751 376.58 15.6751C378.139 15.6751 379.511 15.9569 380.694 16.5205C381.878 17.0841 382.921 17.9577 383.822 19.1413L380.863 21.8185C380.206 20.9355 379.548 20.3249 378.891 19.9867C378.252 19.6298 377.472 19.4513 376.552 19.4513C375.857 19.4513 375.256 19.5922 374.748 19.874C374.26 20.1558 373.875 20.5503 373.593 21.0576V22.1848C373.762 22.5981 374.034 22.9551 374.41 23.2557C374.786 23.5375 375.312 23.7629 375.988 23.932L378.75 24.6929C381.831 25.5383 383.512 26.8628 383.794 28.6664V32.4707C383.437 33.767 382.592 34.8285 381.258 35.6551C379.943 36.463 378.308 36.8669 376.355 36.8669Z" fill="white"/>
</svg>
