<svg width="273" height="52" viewBox="0 0 273 52" fill="none" xmlns="http://www.w3.org/2000/svg">
<rect width="273" height="51.8319" fill="#FFCD00"/>
<path d="M55.1343 36.416H42.3403V16.126H46.5674V32.6398H55.1343V36.416ZM62.8595 16.126H68.1575L75.2026 35.7115V36.416H70.8628L69.3974 32.1326H61.6196L60.1542 36.416H55.8144V35.7115L62.8595 16.126ZM65.283 21.3394L62.8877 28.3564H68.1293L65.7339 21.3394H65.283ZM81.2401 36.416H77.1257V16.126H81.5219L89.8633 28.6945H90.3142V16.126H94.4286V36.416H90.0324L81.691 23.8757H81.2401V36.416ZM106.919 33.0907C107.971 33.0907 108.911 32.9028 109.737 32.5271C110.564 32.1514 111.344 31.5408 112.076 30.6954L114.894 33.4289C114.068 34.3682 113.194 35.1009 112.274 35.627C111.372 36.153 110.338 36.51 109.174 36.6978C109.568 37.2239 109.765 37.9002 109.765 38.7268C109.765 39.9292 109.371 40.8779 108.582 41.5731C107.793 42.2682 106.76 42.6157 105.482 42.6157H103.904V39.7413H104.637C105.313 39.7413 105.82 39.6004 106.158 39.3186C106.496 39.0368 106.666 38.6423 106.666 38.135C106.666 37.609 106.496 37.1769 106.158 36.8387C103.848 36.6884 101.922 35.9557 100.381 34.6406C98.8408 33.3068 97.8357 31.5126 97.366 29.2581V23.2839C97.8732 20.8979 98.9629 19.038 100.635 17.7041C102.326 16.3514 104.421 15.6751 106.919 15.6751C108.685 15.6751 110.198 15.9381 111.456 16.4642C112.715 16.9902 113.88 17.8544 114.951 19.0568L112.161 21.7621C111.391 20.8979 110.62 20.2967 109.85 19.9586C109.08 19.6204 108.169 19.4513 107.116 19.4513C105.726 19.4513 104.552 19.7707 103.594 20.4094C102.636 21.0482 101.969 21.9688 101.593 23.1711V29.3709C101.969 30.5545 102.617 31.475 103.538 32.1326C104.477 32.7713 105.604 33.0907 106.919 33.0907ZM122.441 16.126H127.738L134.784 35.7115V36.416H130.444L128.978 32.1326H121.201L119.735 36.416H115.395V35.7115L122.441 16.126ZM124.864 21.3394L122.469 28.3564H127.71L125.315 21.3394H124.864ZM140.877 36.416H136.707V16.126H141.159L146.514 24.9183H146.964L152.319 16.126H156.771V36.416H152.601V23.7348H152.15L148.289 30.2726H145.189L141.328 23.7348H140.877V36.416ZM173.648 36.416H160.319V16.126H173.648V19.9022H164.546V24.1293H171.112V27.9055H164.546V32.6398H173.648V36.416ZM180.478 36.416H176.363V16.126H180.759L189.101 28.6945H189.552V16.126H193.666V36.416H189.27L180.928 23.8757H180.478V36.416ZM205.734 36.416H201.507V19.9022H195.871V16.126H211.37V19.9022H205.734V36.416ZM221.733 36.8669C219.216 36.8669 217.102 36.2094 215.392 34.8943C213.683 33.5604 212.612 31.6817 212.18 29.2581V23.2839C212.612 20.8603 213.683 18.991 215.392 17.6759C217.102 16.342 219.216 15.6751 221.733 15.6751C224.251 15.6751 226.364 16.342 228.074 17.6759C229.783 18.991 230.854 20.8603 231.286 23.2839V29.2581C230.854 31.6817 229.783 33.5604 228.074 34.8943C226.364 36.2094 224.251 36.8669 221.733 36.8669ZM221.733 33.0907C223.105 33.0907 224.26 32.7431 225.199 32.048C226.157 31.3341 226.777 30.3384 227.059 29.0609V23.4529C226.777 22.1754 226.167 21.1891 225.227 20.494C224.288 19.7989 223.123 19.4513 221.733 19.4513C220.343 19.4513 219.178 19.7989 218.239 20.494C217.299 21.1891 216.689 22.1754 216.407 23.4529V29.0609C216.689 30.3384 217.299 31.3341 218.239 32.048C219.197 32.7431 220.362 33.0907 221.733 33.0907Z" fill="#101011"/>
</svg>
